<svg width="32" height="32" viewBox="0 0 32 32" fill="none" xmlns="http://www.w3.org/2000/svg">
  <!-- Background -->
  <rect width="32" height="32" fill="#050505" rx="4"/>
  <!-- Squid mantle (main body) -->
  <ellipse cx="16" cy="17.5" rx="8" ry="6" fill="#00ffcc"/>
  <!-- Head -->
  <ellipse cx="16" cy="14.5" rx="5" ry="4" fill="#00ffcc"/>
  <!-- Eyes -->
  <circle cx="13.5" cy="13.5" r="0.8" fill="#050505"/>
  <circle cx="18.5" cy="13.5" r="0.8" fill="#050505"/>
  <!-- Large fins -->
  <path d="M7 19.5Q5 17 7 14.5Q9 17 7 19.5" stroke="#00ffcc" stroke-width="0.8" stroke-linecap="round" fill="none"/>
  <path d="M25 19.5Q27 17 25 14.5Q23 17 25 19.5" stroke="#00ffcc" stroke-width="0.8" stroke-linecap="round" fill="none"/>
  <!-- Arms/Tentacles (8 arms, more connected and realistic) -->
  <path d="M10.5 18.5Q9.5 20 10.5 21.5Q11.5 23 10.5 24.5Q9.5 26 10.5 27.5" stroke="#00ffcc" stroke-width="0.8" stroke-linecap="round" fill="none"/>
  <path d="M12 18.5Q11 19.5 12 21Q13 22.5 12 24Q11 25.5 12 27Q13 28.5 12 30" stroke="#00ffcc" stroke-width="0.8" stroke-linecap="round" fill="none"/>
  <path d="M13.5 18.5Q12.5 20 13.5 21.5Q14.5 23 13.5 24.5Q12.5 26 13.5 27.5Q14.5 29 13.5 30.5" stroke="#00ffcc" stroke-width="0.8" stroke-linecap="round" fill="none"/>
  <path d="M15 18.5Q14 19.5 15 21Q16 22.5 15 24Q14 25.5 15 27Q16 28.5 15 30Q14 31.5 15 32" stroke="#00ffcc" stroke-width="0.8" stroke-linecap="round" fill="none"/>
  <path d="M17 18.5Q18 19.5 17 21Q16 22.5 17 24Q18 25.5 17 27Q16 28.5 17 30Q18 31.5 17 32" stroke="#00ffcc" stroke-width="0.8" stroke-linecap="round" fill="none"/>
  <path d="M18.5 18.5Q19.5 20 18.5 21.5Q17.5 23 18.5 24.5Q19.5 26 18.5 27.5Q17.5 29 18.5 30.5" stroke="#00ffcc" stroke-width="0.8" stroke-linecap="round" fill="none"/>
  <path d="M20 18.5Q21 19.5 20 21Q19 22.5 20 24Q21 25.5 20 27Q19 28.5 20 30" stroke="#00ffcc" stroke-width="0.8" stroke-linecap="round" fill="none"/>
  <path d="M21.5 18.5Q22.5 20 21.5 21.5Q20.5 23 21.5 24.5Q22.5 26 21.5 27.5" stroke="#00ffcc" stroke-width="0.8" stroke-linecap="round" fill="none"/>
  <!-- Siphon/Funnel -->
  <path d="M16 16.5Q15.5 18 16 19.5" stroke="#00ffcc" stroke-width="0.6" stroke-linecap="round" fill="none"/>
</svg>
